<svg width="160" height="160" viewBox="0 0 160 160" fill="none" xmlns="http://www.w3.org/2000/svg">
<mask id="mask0_805_6005" style="mask-type:alpha" maskUnits="userSpaceOnUse" x="0" y="0" width="160" height="160">
<circle cx="79.7377" cy="79.7377" r="79.7377" fill="#D9D9D9"/>
</mask>
<g mask="url(#mask0_805_6005)">
<path d="M123.451 145.569C123.085 145.83 122.667 146.092 122.301 146.353C121.883 146.614 121.517 146.876 121.098 147.085C120.732 147.294 120.419 147.503 120.053 147.713C120 147.765 119.948 147.765 119.896 147.817C118.693 148.549 117.438 149.229 116.183 149.856C115.817 150.065 115.399 150.275 115.033 150.431C115.033 150.431 114.981 150.484 114.928 150.484C114.51 150.693 114.092 150.902 113.673 151.111C112.837 151.53 111.948 151.896 111.111 152.262C110.693 152.471 110.222 152.628 109.804 152.784C109.386 152.941 108.915 153.15 108.497 153.307C108.079 153.464 107.608 153.673 107.19 153.83C107.19 153.83 107.19 153.83 107.137 153.83C106.719 153.987 106.249 154.144 105.83 154.301C104.889 154.614 103.896 154.928 102.954 155.242C102.641 155.347 102.275 155.451 101.961 155.556C100.968 155.869 99.9741 156.131 98.9806 156.34C98.6146 156.445 98.2486 156.497 97.8303 156.601C96.8891 156.811 95.8957 157.02 94.9545 157.229C94.7453 157.281 94.5885 157.281 94.3793 157.333C94.0656 157.386 93.6996 157.438 93.3858 157.49C92.9153 157.543 92.497 157.647 92.0264 157.699C91.8172 157.752 91.6081 157.752 91.3989 157.804C91.1375 157.856 90.8238 157.909 90.51 157.909C89.6734 158.013 88.7845 158.118 87.9479 158.222C87.6865 158.275 87.3728 158.275 87.1113 158.327H87.059C86.693 158.379 86.327 158.379 85.961 158.431C85.595 158.484 85.229 158.484 84.863 158.484C84.6538 158.484 84.3924 158.536 84.1832 158.536C83.7649 158.536 83.3989 158.588 83.0329 158.588C82.51 158.588 82.0394 158.641 81.5166 158.641C80.9937 158.641 80.5231 158.641 80.0002 158.641C79.6342 158.641 79.2682 158.641 78.9022 158.641C56.8368 158.327 37.0198 148.967 22.8499 134.118C22.8499 134.118 22.8499 134.065 22.7976 134.065C21.229 132.654 22.5885 125.124 28.9153 120.366C36.863 114.353 55.8957 110.588 55.8957 110.588C55.8957 110.588 63.2682 109.386 90.6146 115.085C106.615 118.431 118.798 123.294 125.595 136.471C127.007 139.19 128.419 143.373 123.451 145.569Z" fill="white"/>
<path d="M90.7714 114.51C100.811 116.549 111.53 118.745 119.791 125.386C122.562 127.634 124.392 130.928 125.909 134.118C126.641 135.686 127.373 137.307 127.948 139.033C128.262 140.183 128.732 141.49 128.471 142.85C128.418 143.216 128.105 143.686 127.843 143.948C126.641 145.15 125.334 145.882 124.026 146.824C116.34 152.157 107.503 155.922 98.3531 157.909C77.961 162.353 55.8956 158.902 37.961 148.183C32.0002 144.575 26.51 140.183 21.8041 135.007C21.2812 134.379 21.2812 133.333 21.2812 132.654C21.3335 131.085 21.7518 129.569 22.2747 128.157C23.5296 124.915 25.1505 121.673 27.9218 119.425C29.9087 118.065 32.0525 116.915 34.2486 115.974C41.1505 113.046 48.4185 111.007 55.8956 110.17C56.5231 110.118 56.6276 111.007 56.0002 111.111C48.8368 112.575 41.7257 114.771 35.0852 117.752C32.6799 118.954 30.1179 120 28.1832 121.882C26.3531 123.869 25.046 126.327 24.0002 128.837C23.3205 130.353 22.8499 132.758 23.059 133.961C26.3531 137.882 30.2224 141.333 34.4054 144.314C57.3074 160.314 92.0786 161.359 116.445 148.026C118.641 146.824 120.785 145.464 122.824 144.052C123.817 143.373 124.863 142.797 125.647 142.013C125.7 141.961 125.647 142.013 125.647 142.065C125.647 142.118 125.595 142.17 125.595 142.17C125.647 141.542 125.438 140.706 125.177 139.869C124.235 136.837 122.719 133.647 121.098 130.876C118.536 126.745 114.196 124.131 109.804 122.039C106.771 120.627 103.582 119.529 100.34 118.484C97.0982 117.438 93.8041 116.549 90.51 115.765C89.6734 115.556 89.9348 114.353 90.7714 114.51Z" fill="black"/>
<path d="M130.614 152.993C129.621 145.255 125.229 132.235 122.562 128.732C119.634 124.915 118.431 123.712 108.653 120.418C108.131 117.804 106.196 111.216 103.895 108.444C100.392 103.163 90.8233 101.961 87.9475 102.588C87.9475 102.588 72.4704 97.1503 54.6403 97.1503C48.9933 98.4052 42.4573 100.967 38.9018 106.353C36.4965 109.908 39.2155 111.059 38.0129 114.301C37.6991 115.137 30.3789 119.32 27.3985 121.83C26.039 122.928 24.5227 125.699 23.4769 129.307C21.3854 136.68 23.6338 146.876 21.0194 155.765C15.9998 172.915 5.80371 178.039 5.80371 178.039H140.915C140.81 177.987 132.758 169.307 130.614 152.993Z" fill="url(#paint0_linear_805_6005)"/>
<path d="M129.83 153.098C128.784 146.248 126.693 139.451 124.026 133.072C122.719 129.987 120.732 127.007 117.961 125.177C116.549 124.288 114.98 123.608 113.359 122.928C111.739 122.301 110.065 121.726 108.444 121.15C108.183 121.046 107.974 120.837 107.922 120.575C107.712 119.529 107.451 118.536 107.137 117.49C105.778 113.255 104.314 108.549 100.34 106.092C97.3072 104.262 93.6993 103.373 90.196 103.216C89.5163 103.216 88.7843 103.216 88.1568 103.32H87.9477C87.8954 103.32 87.7908 103.32 87.7385 103.268C85.2287 102.065 82.4575 101.333 79.7385 100.601C71.5817 98.719 63.0588 97.9347 54.6928 97.8824C49.5686 99.085 42.4052 101.909 39.2679 107.137C38.7451 107.974 38.4836 108.811 38.5882 109.752C38.6928 110.797 39.0588 111.948 38.7974 113.046C38.6928 113.516 38.5882 114.039 38.3791 114.458C37.9608 115.033 37.281 115.399 36.7581 115.765C34.0392 117.543 31.2679 119.111 28.6536 120.941C27.7647 121.569 26.9281 122.144 26.3006 123.033C24.4706 125.647 23.3725 128.784 22.9019 131.922C22.0653 138.301 22.9019 144.784 22.0653 151.163C21.1241 157.543 18.6666 163.713 15.2157 169.15C12.8104 172.811 9.88232 176.209 6.1699 178.562L5.80389 177.098H140.915L140.34 178.405C138.771 176.628 137.516 174.693 136.366 172.654C132.81 166.693 130.719 159.948 129.83 153.098ZM131.399 152.889C131.974 157.333 133.072 161.726 134.745 165.909C136.418 170.039 138.51 174.065 141.438 177.464C141.856 177.935 141.49 178.824 140.863 178.771H5.7516C5.3333 178.771 4.96729 178.405 4.96729 177.987C4.96729 177.673 5.12415 177.412 5.38559 177.307C6.22219 176.837 7.05879 176.157 7.8431 175.477C14.6928 169.307 18.9804 160.157 20.3921 151.059C21.5947 142.536 19.3464 133.333 23.1634 125.229C24.0523 123.346 25.1503 121.36 26.9281 120.157C30.1699 117.752 33.7255 115.974 36.915 113.621C36.9673 113.621 36.9673 113.569 36.9673 113.569C36.915 113.621 36.8627 113.726 36.8627 113.778C37.1764 113.046 37.281 112.418 37.1764 111.582C37.0196 110.536 36.7581 109.124 37.1241 108.026C37.281 107.399 37.5947 106.824 37.9085 106.353C41.6732 100.706 48.3137 98.1962 54.6405 96.7844C56.4183 96.8367 58.2483 96.5229 60.0261 96.5229C62.4836 96.5229 64.9934 96.889 67.4509 97.2027C74.5098 98.3007 81.3072 100.183 88.2614 101.699L87.7908 101.647C89.4117 101.333 90.9281 101.49 92.4967 101.699C102.536 103.216 105.935 107.608 108.654 116.967C108.967 118.013 109.229 119.059 109.49 120.157L108.967 119.529C113.987 121.307 119.634 122.928 122.823 127.582C123.974 128.994 124.81 130.667 125.542 132.34C128.209 139.033 130.301 145.778 131.399 152.889Z" fill="black"/>
<path d="M48.2093 118.588C52.0786 126.85 58.0917 133.856 65.2551 139.399C65.5165 139.608 65.2551 140.026 64.9414 139.869C58.5623 136.837 53.1766 131.66 49.9871 125.386C48.9414 123.294 48.0525 121.046 47.7387 118.693C47.6342 118.432 48.0525 118.327 48.2093 118.588Z" fill="url(#paint1_linear_805_6005)"/>
<path d="M109.438 120.314C109.595 129.046 106.039 137.987 99.242 143.634C99.0851 143.791 98.876 143.739 98.7191 143.582C98.5622 143.425 98.6145 143.216 98.7714 143.059C100.288 141.595 101.804 140.079 102.954 138.301C105.36 134.85 106.824 130.771 107.503 126.641C107.817 124.601 108.026 122.405 107.869 120.366C107.817 119.373 109.386 119.268 109.438 120.314Z" fill="black"/>
<path d="M78.6405 141.072C77.4379 145.307 76.4444 149.909 77.0196 154.301C77.1764 155.294 75.6601 155.556 75.451 154.51C75.1895 152.105 75.5032 149.752 75.9215 147.451C76.3921 145.15 76.9673 142.954 77.7516 140.758C77.9607 140.235 78.8496 140.497 78.6405 141.072Z" fill="black"/>
<path d="M95.2679 140.288C96.9934 144 98.196 147.869 99.1372 151.791C99.2418 152.209 98.9804 152.627 98.5621 152.732C98.1438 152.837 97.7255 152.575 97.6209 152.157C97.098 149.229 96.4183 146.301 95.4771 143.425C95.1634 142.484 94.8496 141.543 94.4836 140.601C94.2745 140.131 95.0065 139.765 95.2679 140.288Z" fill="black"/>
<path d="M39.1111 114.092C41.0458 124.654 48.4706 133.595 57.4118 139.294C60.4445 141.229 63.6863 142.902 67.0327 144.262C67.2419 144.366 67.3464 144.575 67.2419 144.784C67.1896 144.994 66.9281 145.098 66.7713 144.994C63.3203 143.739 59.9739 142.17 56.8366 140.288C50.4575 136.523 44.8628 131.294 41.0981 124.915C39.1634 121.621 37.6471 118.17 36.9151 114.405C36.8105 113.778 37.2288 113.203 37.8562 113.098C38.4314 112.941 39.0589 113.412 39.1111 114.092Z" fill="black"/>
<path d="M75.503 155.451C74.039 155.294 72.9932 153.935 73.3069 152.471L73.8821 149.699C74.0913 148.601 75.137 147.817 76.235 147.974C77.3331 148.079 78.222 149.02 78.222 150.17V152.994C78.2743 154.458 77.0194 155.608 75.503 155.451Z" fill="black"/>
<path d="M99.6078 153.516C98.196 154.039 96.6797 153.203 96.3137 151.739L95.6339 148.967C95.3725 147.869 95.9477 146.771 97.0457 146.353C98.0915 145.987 99.2941 146.458 99.7647 147.451L101.02 150.013C101.647 151.425 101.02 153.046 99.6078 153.516Z" fill="black"/>
<path d="M123.765 151.948C123.765 151.948 126.693 168.366 125.543 177.987" stroke="black" stroke-width="0.683427" stroke-miterlimit="10" stroke-linecap="round" stroke-linejoin="round"/>
<path d="M55.4769 112.209C54.7449 110.118 54.4312 107.974 54.588 105.778C54.588 105.569 54.7449 105.464 54.9541 105.464C55.1109 105.464 55.2678 105.621 55.2678 105.778C55.4246 107.765 55.9998 109.804 56.941 111.529C57.4116 112.575 55.8429 113.255 55.4769 112.209Z" fill="black"/>
<path d="M90.8233 114.98C89.3592 111.686 85.7514 110.013 82.5618 108.863C80.5749 108.235 78.3788 107.765 76.2873 107.451C71.2154 106.667 64.052 105.464 58.9801 104.941C58.9278 104.941 58.9278 104.837 58.9801 104.837C60.4442 104.68 61.9082 104.68 63.3723 104.68C67.7644 104.784 72.1566 105.255 76.4965 105.935C80.8363 106.614 85.4899 107.922 88.7841 111.059C89.8298 112.157 90.771 113.412 91.0324 114.928C91.0847 115.085 90.8756 115.137 90.8233 114.98Z" fill="black"/>
<path d="M95.6859 128.552C94.5879 133.937 87.4768 137.179 75.5029 132.316C63.0585 127.297 57.6728 115.323 56.3134 111.767C63.6859 97.9634 58.5617 88.3947 58.5617 88.3947C75.5552 86.9307 90.4049 106.8 90.4049 106.8L92.7055 116.63C92.9147 117.467 93.333 118.199 93.9604 118.722C95.0585 120.656 96.3656 125.101 95.6859 128.552Z" fill="white"/>
<path d="M56.0522 111.924C57.0456 110.408 57.6731 108.63 58.0914 106.905C58.8757 103.297 59.1371 99.6366 59.1894 95.9765V94.617C59.0326 93.2575 58.562 91.8457 58.0391 90.5908C57.3594 88.9176 59.8169 87.8719 60.6012 89.5451C60.7058 89.7542 60.7058 90.1203 60.7058 90.3294C60.8626 97.4405 61.1764 106.591 56.6796 112.499C56.3659 112.813 55.7385 112.342 56.0522 111.924Z" fill="black"/>
<path d="M90.9801 106.695C91.7644 107.166 92.0258 107.794 92.1304 108.421C92.4441 109.676 92.3396 111.035 92.6533 112.343C92.9147 113.597 93.6991 114.8 93.9082 116.107C94.1696 117.467 94.954 120.343 95.2677 121.754C95.3723 122.068 95.1631 122.434 94.7971 122.486C94.5879 122.539 94.4311 122.486 94.2742 122.382C93.5945 121.807 93.2808 121.231 92.8625 120.499C92.1827 119.244 91.7121 118.094 91.2938 116.682C90.9278 115.428 91.0847 114.068 90.7709 112.761C90.5095 111.506 89.7775 110.303 89.516 108.996C89.3592 108.369 89.3069 107.689 89.7775 106.905C90.0912 106.591 90.6141 106.486 90.9801 106.695Z" fill="black"/>
<path d="M94.7449 120.499C84.758 119.976 76.6012 116.839 68.6534 102.669C75.3463 108.578 83.2417 110.826 91.5554 111.872L92.6534 116.682C92.8626 117.519 94.1175 119.976 94.7449 120.499Z" fill="black"/>
<path d="M94.3268 118.565C96.1046 121.911 97.1504 126.094 96.0523 129.807C95.2157 132.421 92.8105 134.356 90.1961 135.088C84.1308 136.709 77.1242 134.146 71.7386 131.271C65.0981 127.558 60.183 121.336 57.0458 114.539C56.8366 114.016 57.5687 113.597 57.8824 114.12C58.9804 116.316 60.2353 118.46 61.6471 120.395C63.0589 122.382 64.6798 124.212 66.5098 125.833C71.8432 130.643 79.0589 133.624 86.2745 133.624C93.6994 133.414 96.5229 129.493 94.7974 122.277C94.536 121.127 94.1177 119.924 93.5425 118.931C93.2288 118.512 94.0131 118.042 94.3268 118.565Z" fill="black"/>
<path d="M114.562 55.7673C115.503 60.1594 115.974 63.715 113.412 75.4274C110.902 87.0875 117.02 89.4928 102.536 108.159C96.6274 115.793 82.3006 113.65 70.6927 105.754C66.7711 103.088 65.0979 96.2379 62.1698 91.3751C59.8692 87.5581 58.8234 91.532 55.7908 88.2379C51.66 83.7411 46.6927 74.6954 49.1502 58.6954C53.1241 32.7607 73.6731 29.728 88.8888 32.6039C104.209 35.532 112.052 44.2117 114.562 55.7673Z" fill="white"/>
<path d="M58.4052 92.8915C57.2025 90.8523 55.6339 89.0745 54.1699 87.1922C52.7581 85.2575 51.6078 83.1137 50.6666 80.9177C44.4444 65.6497 46.8496 44.1595 62.1176 35.166C68.4444 31.5059 76.0784 30.617 83.1895 31.1922C98.4052 32.2902 112.366 39.2967 115.66 55.4013C117.438 62.5124 115.033 69.8327 113.673 76.7869C113.046 80.2379 113.569 83.7935 113.516 87.349C113.464 90.9569 112.471 94.5647 111.111 97.9111C110.274 100.212 108.81 102.251 107.294 104.133C104.784 107.166 102.274 110.251 99.0849 112.604C98.3529 113.127 97.0457 113.388 96.1568 113.493C93.6993 113.859 91.294 113.963 88.8365 113.807C79.2156 113.388 68.915 108.735 65.0457 99.4275C64.8888 99.0614 65.4117 98.8 65.6208 99.1137C70.6405 107.061 79.8431 110.983 88.9934 111.506C91.8169 111.663 94.6927 111.61 97.464 111.035C98.8235 110.356 100.026 109.153 101.176 108.055C104 105.231 106.876 102.199 108.915 98.7477C111.372 94.0941 112.732 89.0222 112.314 83.7412C112.209 81.3882 112.157 78.9307 112.627 76.5778C113.046 74.2248 113.569 71.9765 113.882 69.5713C114.196 67.2706 114.353 64.9177 114.353 62.617C114.091 55.8719 111.895 48.9177 107.608 43.6889C98.1437 31.9242 75.7646 28.8392 63.1633 36.8915C55.2156 41.8065 51.5032 51.0092 50.3006 59.9503C48.4705 70.6693 48.9934 81.2314 57.5163 89.0222L60.0261 91.6366C61.0195 92.7869 59.2418 94.1464 58.4052 92.8915Z" fill="black"/>
<path d="M64.5749 76.2641C64.5749 76.2641 62.954 68.4209 55.32 69.3621C48.7317 70.1987 46.4311 85.9896 61.3853 90.3817" fill="white"/>
<path d="M60.7058 83.532C59.5032 82.8523 58.6666 81.7019 58.6143 80.2902C58.6666 79.2444 58.8234 78.0418 58.562 76.9961C58.4051 76.0026 57.3594 75.7411 56.575 75.7934C55.7384 75.9503 55.2156 76.9961 55.0587 77.8327C55.0587 77.8849 55.0064 78.0418 55.0064 78.0941C54.9541 78.3555 54.5358 78.3555 54.4313 78.0941C53.7515 76.0549 55.2679 73.8065 57.4639 74.0679C60.5489 74.2771 60.9672 77.5189 60.392 79.9764C60.0783 81.0222 60.4966 81.9634 61.0718 82.8523L61.1764 83.0091C61.4378 83.3229 61.0195 83.7412 60.7058 83.532Z" fill="black"/>
<path d="M102.536 70.7216C103.32 74.434 104.784 77.885 106.614 81.1268C108.235 85.1007 104.052 88.8654 100.34 88.7085C99.9214 88.7085 99.8691 88.1334 100.235 88.0288C102.588 87.2968 104.732 85.7281 105.098 83.3229C105.255 82.5909 105.046 81.9634 104.68 81.336C102.954 78.0941 101.908 74.3817 102.17 70.7216C102.17 70.4602 102.536 70.4602 102.536 70.7216Z" fill="black"/>
<path d="M64.3136 76.3163C63.111 73.2313 60.4966 70.3032 56.9933 70.3555C56.6796 70.3032 56.1567 70.4078 55.843 70.4078C54.9541 70.4601 54.2221 70.7738 53.5423 71.4013C50.1959 74.7477 50.7711 80.6562 53.4901 84.3686C54.4312 85.6758 55.6338 86.8261 56.9933 87.7673C58.3528 88.7085 59.8691 89.4405 61.4901 90.0679C61.8561 90.1725 61.6992 90.7477 61.3332 90.6954C57.8299 89.9634 54.4835 88.2379 52.1829 85.362C48.6273 81.0745 47.8953 73.9111 52.1306 69.7281C53.0718 68.8915 54.3789 68.264 55.6861 68.264C56.1044 68.264 56.7319 68.1594 57.1502 68.264C59.3463 68.3686 61.4378 69.4666 62.7972 71.1921C63.9999 72.6562 64.6796 74.4339 64.8888 76.2117C64.8888 76.5254 64.4182 76.63 64.3136 76.3163Z" fill="black"/>
<path d="M98.5621 93.8039C95.2157 96.9935 88.8889 94.4314 87.2157 90.5621C87.0066 90.0915 87.5294 89.6732 87.9477 89.8823C88.8366 90.3529 89.6209 90.8235 90.4575 91.1895C92.8628 92.2876 95.3726 93.1765 98.0392 92.915C98.5621 92.8104 98.9281 93.4379 98.5621 93.8039Z" fill="black"/>
<path d="M83.0328 75.9216C81.7779 75.8693 80.8367 74.8235 80.9413 73.5686L80.9936 72.1046C81.0459 70.8497 82.0916 69.9085 83.3465 70.0131C84.6014 70.0654 85.5426 71.1111 85.438 72.366L85.3857 73.8301C85.3334 75.0327 84.2877 75.9739 83.0328 75.9216Z" fill="black"/>
<path d="M105.046 76.7059C103.895 76.6536 103.007 75.6602 103.059 74.5099L103.111 73.1504C103.163 72 104.157 71.1112 105.307 71.1634C106.458 71.2157 107.346 72.2092 107.294 73.3595L107.242 74.719C107.19 75.8693 106.196 76.7582 105.046 76.7059Z" fill="black"/>
<path d="M87.7386 73.0981C86.0132 71.9478 84.1308 71.1635 82.0393 71.5818C81.3596 71.6863 80.6798 71.8955 80.2615 72.3661C80.1047 72.5752 79.7386 72.5229 79.7386 72.2092C79.7909 71.1635 80.6798 70.4837 81.5164 70.0654C83.1373 69.2288 85.3857 69.3857 86.8498 70.4837C87.3726 70.7975 89.1504 72.7321 88.2092 73.1504C88.0001 73.255 87.8955 73.2027 87.7386 73.0981Z" fill="black"/>
<path d="M102.693 73.3595C102.693 71.1634 105.412 70.3791 107.085 71.1634C108.026 71.5817 108.706 72.4183 108.968 73.4118C109.072 73.7255 108.601 73.987 108.392 73.7255C107.503 72.6798 105.987 72.1569 104.784 72.7843C104.418 72.9935 104.366 73.1504 104.262 73.3595C104.262 74.4053 102.745 74.353 102.693 73.3595Z" fill="black"/>
<path d="M90.2485 64.4707C91.3466 64.8367 92.4446 63.8432 92.2355 62.6406C92.1309 62.0131 91.8694 61.3857 91.3466 60.9151C89.7779 59.5033 83.2943 58.2484 79.3727 60.0785C75.9217 61.7517 85.2289 62.7974 90.2485 64.4707Z" fill="black"/>
<path d="M105.883 65.3073C104.994 65.621 104.053 64.6798 104.209 63.5818C104.262 63.0066 104.471 62.4315 104.889 62.0132C106.144 60.7583 110.432 59.7648 113.151 61.6994C115.504 63.3204 109.961 63.7909 105.883 65.3073Z" fill="black"/>
<path d="M116.929 38.5847C117.87 36.3886 117.87 33.9834 116.302 31.8918C111.753 25.8788 97.6872 30.4278 89.844 27.918C78.0793 24.101 63.4911 23.6304 54.9159 37.7481C52.7721 41.3036 51.7264 42.2971 48.6937 45.1206C45.5565 48.0487 43.0989 53.4343 42.8898 60.8069C42.4192 75.6043 54.027 88.467 54.027 88.467C54.6022 89.2513 55.1251 89.9311 55.5957 90.5062C59.7787 95.5258 61.0859 105.199 59.831 89.9311C46.8114 84.9115 49.1643 70.3232 55.4911 69.5389C62.1839 68.7023 64.2754 74.6631 64.6414 76.1271C69.1382 73.2513 67.5172 67.1337 66.9944 61.4343C70.4976 59.8657 73.478 56.101 75.0466 52.7023C76.7721 55.1075 78.8636 56.9899 81.3734 57.199C84.0401 57.4605 85.6087 55.2121 86.1316 52.0226C89.5826 56.5716 95.7002 62.2186 105.321 63.3167C109.922 63.8396 113.739 61.9049 116.302 58.7154C116.981 58.82 117.609 58.8722 118.236 58.82C124.981 58.1402 132.511 44.4932 116.929 38.5847Z" fill="black"/>
<path d="M150.693 44.0784C182.431 105.203 126.641 174.17 60.1308 157.333C30.2746 149.908 6.27457 124.026 1.30725 93.647C-4.33981 63.4248 9.30725 30.9542 34.8236 13.8561C69.804 -10.1961 118.275 -2.19614 143.32 32.2091C143.477 32.366 143.425 32.6274 143.216 32.7843C143.059 32.9411 142.797 32.8888 142.641 32.6797C139.19 28.2352 135.268 24.2091 130.98 20.6012C123.922 14.5882 115.66 9.88229 106.928 6.69275C62.4837 -9.41183 13.6994 17.3594 3.97391 63.8431C-7.00648 115.922 37.2811 163.869 90.0916 156.706C130.824 151.582 161.098 113.987 157.752 73.098C157.02 63.2156 154.405 53.4379 150.065 44.4444C149.961 44.2875 150.065 44.0784 150.222 43.9738C150.379 43.8692 150.588 43.9215 150.693 44.0784Z" fill="white"/>
</g>
<defs>
<linearGradient id="paint0_linear_805_6005" x1="5.80371" y1="137.595" x2="140.915" y2="137.595" gradientUnits="userSpaceOnUse">
<stop stop-color="#9955E8"/>
<stop offset="1" stop-color="#7BFFAF"/>
</linearGradient>
<linearGradient id="paint1_linear_805_6005" x1="47.7222" y1="129.17" x2="65.3621" y2="129.17" gradientUnits="userSpaceOnUse">
<stop stop-color="#9955E8"/>
<stop offset="1" stop-color="#7BFFAF"/>
</linearGradient>
</defs>
</svg>
